<mxfile host="Electron" modified="2023-11-23T00:49:28.620Z" agent="Mozilla/5.0 (Macintosh; Intel Mac OS X 10_15_7) AppleWebKit/537.36 (KHTML, like Gecko) draw.io/22.1.2 Chrome/114.0.5735.289 Electron/25.9.4 Safari/537.36" etag="kyiQ3jA2KC1H9NoLWOLE" version="22.1.2" type="device">
  <diagram name="Page-1" id="4lmm6X2UEes6_DvLodEO">
    <mxGraphModel dx="1194" dy="609" grid="1" gridSize="10" guides="1" tooltips="1" connect="1" arrows="1" fold="1" page="1" pageScale="1" pageWidth="850" pageHeight="1100" math="0" shadow="0">
      <root>
        <mxCell id="0" />
        <mxCell id="1" parent="0" />
        <mxCell id="7nPVy0LuQcUKSxDzFn3D-1" value="Login Page" style="shape=umlLifeline;perimeter=lifelinePerimeter;whiteSpace=wrap;html=1;container=1;dropTarget=0;collapsible=0;recursiveResize=0;outlineConnect=0;portConstraint=eastwest;newEdgeStyle={&quot;curved&quot;:0,&quot;rounded&quot;:0};" vertex="1" parent="1">
          <mxGeometry x="350" y="120" width="100" height="420" as="geometry" />
        </mxCell>
        <mxCell id="7nPVy0LuQcUKSxDzFn3D-14" value="" style="html=1;points=[[0,0,0,0,5],[0,1,0,0,-5],[1,0,0,0,5],[1,1,0,0,-5]];perimeter=orthogonalPerimeter;outlineConnect=0;targetShapes=umlLifeline;portConstraint=eastwest;newEdgeStyle={&quot;curved&quot;:0,&quot;rounded&quot;:0};" vertex="1" parent="7nPVy0LuQcUKSxDzFn3D-1">
          <mxGeometry x="44.5" y="60" width="10" height="80" as="geometry" />
        </mxCell>
        <mxCell id="7nPVy0LuQcUKSxDzFn3D-4" value="Login" style="text;align=center;fontStyle=1;verticalAlign=middle;spacingLeft=3;spacingRight=3;strokeColor=none;rotatable=0;points=[[0,0.5],[1,0.5]];portConstraint=eastwest;html=1;" vertex="1" parent="1">
          <mxGeometry x="50" y="80" width="80" height="26" as="geometry" />
        </mxCell>
        <mxCell id="7nPVy0LuQcUKSxDzFn3D-5" value="" style="shape=umlLifeline;perimeter=lifelinePerimeter;whiteSpace=wrap;html=1;container=1;dropTarget=0;collapsible=0;recursiveResize=0;outlineConnect=0;portConstraint=eastwest;newEdgeStyle={&quot;curved&quot;:0,&quot;rounded&quot;:0};participant=umlActor;" vertex="1" parent="1">
          <mxGeometry x="180" y="120" width="20" height="420" as="geometry" />
        </mxCell>
        <mxCell id="7nPVy0LuQcUKSxDzFn3D-7" value="" style="html=1;points=[[0,0,0,0,5],[0,1,0,0,-5],[1,0,0,0,5],[1,1,0,0,-5]];perimeter=orthogonalPerimeter;outlineConnect=0;targetShapes=umlLifeline;portConstraint=eastwest;newEdgeStyle={&quot;curved&quot;:0,&quot;rounded&quot;:0};" vertex="1" parent="7nPVy0LuQcUKSxDzFn3D-5">
          <mxGeometry x="5" y="60" width="10" height="80" as="geometry" />
        </mxCell>
        <mxCell id="7nPVy0LuQcUKSxDzFn3D-26" value="" style="html=1;points=[[0,0,0,0,5],[0,1,0,0,-5],[1,0,0,0,5],[1,1,0,0,-5]];perimeter=orthogonalPerimeter;outlineConnect=0;targetShapes=umlLifeline;portConstraint=eastwest;newEdgeStyle={&quot;curved&quot;:0,&quot;rounded&quot;:0};" vertex="1" parent="7nPVy0LuQcUKSxDzFn3D-5">
          <mxGeometry x="5" y="220" width="10" height="120" as="geometry" />
        </mxCell>
        <mxCell id="7nPVy0LuQcUKSxDzFn3D-6" value="Database" style="shape=umlLifeline;perimeter=lifelinePerimeter;whiteSpace=wrap;html=1;container=1;dropTarget=0;collapsible=0;recursiveResize=0;outlineConnect=0;portConstraint=eastwest;newEdgeStyle={&quot;curved&quot;:0,&quot;rounded&quot;:0};" vertex="1" parent="1">
          <mxGeometry x="560" y="120" width="100" height="420" as="geometry" />
        </mxCell>
        <mxCell id="7nPVy0LuQcUKSxDzFn3D-17" value="" style="html=1;points=[[0,0,0,0,5],[0,1,0,0,-5],[1,0,0,0,5],[1,1,0,0,-5]];perimeter=orthogonalPerimeter;outlineConnect=0;targetShapes=umlLifeline;portConstraint=eastwest;newEdgeStyle={&quot;curved&quot;:0,&quot;rounded&quot;:0};" vertex="1" parent="7nPVy0LuQcUKSxDzFn3D-6">
          <mxGeometry x="45" y="120" width="10" height="220" as="geometry" />
        </mxCell>
        <mxCell id="7nPVy0LuQcUKSxDzFn3D-18" style="edgeStyle=orthogonalEdgeStyle;rounded=0;orthogonalLoop=1;jettySize=auto;html=1;curved=0;exitX=1;exitY=0;exitDx=0;exitDy=5;exitPerimeter=0;" edge="1" parent="7nPVy0LuQcUKSxDzFn3D-6">
          <mxGeometry relative="1" as="geometry">
            <mxPoint x="55" y="140" as="sourcePoint" />
            <mxPoint x="55" y="175" as="targetPoint" />
            <Array as="points">
              <mxPoint x="100" y="140" />
              <mxPoint x="100" y="175" />
            </Array>
          </mxGeometry>
        </mxCell>
        <mxCell id="7nPVy0LuQcUKSxDzFn3D-19" value="validate info" style="edgeLabel;html=1;align=center;verticalAlign=middle;resizable=0;points=[];" vertex="1" connectable="0" parent="7nPVy0LuQcUKSxDzFn3D-18">
          <mxGeometry y="1" relative="1" as="geometry">
            <mxPoint x="29" y="-1" as="offset" />
          </mxGeometry>
        </mxCell>
        <mxCell id="7nPVy0LuQcUKSxDzFn3D-8" style="edgeStyle=orthogonalEdgeStyle;rounded=0;orthogonalLoop=1;jettySize=auto;html=1;curved=0;" edge="1" parent="1" target="7nPVy0LuQcUKSxDzFn3D-14">
          <mxGeometry relative="1" as="geometry">
            <mxPoint x="195" y="200" as="sourcePoint" />
            <mxPoint x="370" y="200" as="targetPoint" />
            <Array as="points">
              <mxPoint x="195" y="201" />
            </Array>
          </mxGeometry>
        </mxCell>
        <mxCell id="7nPVy0LuQcUKSxDzFn3D-11" value="username" style="edgeLabel;html=1;align=center;verticalAlign=middle;resizable=0;points=[];" vertex="1" connectable="0" parent="7nPVy0LuQcUKSxDzFn3D-8">
          <mxGeometry x="-0.2958" y="-1" relative="1" as="geometry">
            <mxPoint x="23" y="-12" as="offset" />
          </mxGeometry>
        </mxCell>
        <mxCell id="7nPVy0LuQcUKSxDzFn3D-9" style="edgeStyle=orthogonalEdgeStyle;rounded=0;orthogonalLoop=1;jettySize=auto;html=1;curved=0;" edge="1" parent="1" target="7nPVy0LuQcUKSxDzFn3D-14">
          <mxGeometry relative="1" as="geometry">
            <mxPoint x="195" y="220" as="sourcePoint" />
            <mxPoint x="399.5" y="220" as="targetPoint" />
            <Array as="points">
              <mxPoint x="340" y="220" />
              <mxPoint x="340" y="220" />
            </Array>
          </mxGeometry>
        </mxCell>
        <mxCell id="7nPVy0LuQcUKSxDzFn3D-12" value="password" style="edgeLabel;html=1;align=center;verticalAlign=middle;resizable=0;points=[];" vertex="1" connectable="0" parent="7nPVy0LuQcUKSxDzFn3D-9">
          <mxGeometry x="-0.1002" y="2" relative="1" as="geometry">
            <mxPoint x="3" y="-8" as="offset" />
          </mxGeometry>
        </mxCell>
        <mxCell id="7nPVy0LuQcUKSxDzFn3D-10" style="edgeStyle=orthogonalEdgeStyle;rounded=0;orthogonalLoop=1;jettySize=auto;html=1;curved=0;" edge="1" parent="1" target="7nPVy0LuQcUKSxDzFn3D-14">
          <mxGeometry relative="1" as="geometry">
            <mxPoint x="195" y="240" as="sourcePoint" />
            <mxPoint x="330" y="250" as="targetPoint" />
            <Array as="points">
              <mxPoint x="350" y="240" />
              <mxPoint x="350" y="240" />
            </Array>
          </mxGeometry>
        </mxCell>
        <mxCell id="7nPVy0LuQcUKSxDzFn3D-13" value="login button" style="edgeLabel;html=1;align=center;verticalAlign=middle;resizable=0;points=[];" vertex="1" connectable="0" parent="7nPVy0LuQcUKSxDzFn3D-10">
          <mxGeometry x="-0.0416" relative="1" as="geometry">
            <mxPoint y="-11" as="offset" />
          </mxGeometry>
        </mxCell>
        <mxCell id="7nPVy0LuQcUKSxDzFn3D-15" style="edgeStyle=orthogonalEdgeStyle;rounded=0;orthogonalLoop=1;jettySize=auto;html=1;curved=0;" edge="1" parent="1" target="7nPVy0LuQcUKSxDzFn3D-17">
          <mxGeometry relative="1" as="geometry">
            <mxPoint x="404.5" y="250" as="sourcePoint" />
            <mxPoint x="600" y="250" as="targetPoint" />
            <Array as="points">
              <mxPoint x="560" y="250" />
              <mxPoint x="560" y="250" />
            </Array>
          </mxGeometry>
        </mxCell>
        <mxCell id="7nPVy0LuQcUKSxDzFn3D-16" value="send login info" style="edgeLabel;html=1;align=center;verticalAlign=middle;resizable=0;points=[];" vertex="1" connectable="0" parent="7nPVy0LuQcUKSxDzFn3D-15">
          <mxGeometry x="-0.1764" y="1" relative="1" as="geometry">
            <mxPoint x="21" y="-9" as="offset" />
          </mxGeometry>
        </mxCell>
        <mxCell id="7nPVy0LuQcUKSxDzFn3D-20" value="alternative" style="shape=umlFrame;whiteSpace=wrap;html=1;pointerEvents=0;" vertex="1" parent="1">
          <mxGeometry x="90" y="330" width="630" height="140" as="geometry" />
        </mxCell>
        <mxCell id="7nPVy0LuQcUKSxDzFn3D-21" value="" style="line;strokeWidth=1;fillColor=none;align=left;verticalAlign=middle;spacingTop=-1;spacingLeft=3;spacingRight=3;rotatable=0;labelPosition=right;points=[];portConstraint=eastwest;strokeColor=inherit;" vertex="1" parent="1">
          <mxGeometry x="90" y="396" width="630" height="8" as="geometry" />
        </mxCell>
        <mxCell id="7nPVy0LuQcUKSxDzFn3D-22" value="if valid" style="text;html=1;align=center;verticalAlign=middle;resizable=0;points=[];autosize=1;strokeColor=none;fillColor=none;" vertex="1" parent="1">
          <mxGeometry x="90" y="358" width="60" height="30" as="geometry" />
        </mxCell>
        <mxCell id="7nPVy0LuQcUKSxDzFn3D-23" value="else" style="text;html=1;align=center;verticalAlign=middle;resizable=0;points=[];autosize=1;strokeColor=none;fillColor=none;" vertex="1" parent="1">
          <mxGeometry x="90" y="400" width="50" height="30" as="geometry" />
        </mxCell>
        <mxCell id="7nPVy0LuQcUKSxDzFn3D-24" value="" style="html=1;points=[[0,0,0,0,5],[0,1,0,0,-5],[1,0,0,0,5],[1,1,0,0,-5]];perimeter=orthogonalPerimeter;outlineConnect=0;targetShapes=umlLifeline;portConstraint=eastwest;newEdgeStyle={&quot;curved&quot;:0,&quot;rounded&quot;:0};" vertex="1" parent="1">
          <mxGeometry x="395" y="340" width="10" height="120" as="geometry" />
        </mxCell>
        <mxCell id="7nPVy0LuQcUKSxDzFn3D-27" value="accepted" style="html=1;verticalAlign=bottom;endArrow=open;dashed=1;endSize=8;curved=0;rounded=0;" edge="1" parent="1">
          <mxGeometry relative="1" as="geometry">
            <mxPoint x="605" y="372.5" as="sourcePoint" />
            <mxPoint x="405" y="372.5" as="targetPoint" />
          </mxGeometry>
        </mxCell>
        <mxCell id="7nPVy0LuQcUKSxDzFn3D-28" value="rejected" style="html=1;verticalAlign=bottom;endArrow=open;dashed=1;endSize=8;curved=0;rounded=0;" edge="1" parent="1">
          <mxGeometry relative="1" as="geometry">
            <mxPoint x="605" y="430" as="sourcePoint" />
            <mxPoint x="405" y="430" as="targetPoint" />
          </mxGeometry>
        </mxCell>
        <mxCell id="7nPVy0LuQcUKSxDzFn3D-31" value="redirect to user profile" style="html=1;verticalAlign=bottom;endArrow=open;dashed=1;endSize=8;curved=0;rounded=0;" edge="1" parent="1" target="7nPVy0LuQcUKSxDzFn3D-26">
          <mxGeometry relative="1" as="geometry">
            <mxPoint x="395" y="372.5" as="sourcePoint" />
            <mxPoint x="315" y="372.5" as="targetPoint" />
            <mxPoint as="offset" />
          </mxGeometry>
        </mxCell>
        <mxCell id="7nPVy0LuQcUKSxDzFn3D-33" value="display error message" style="html=1;verticalAlign=bottom;endArrow=open;dashed=1;endSize=8;curved=0;rounded=0;" edge="1" parent="1">
          <mxGeometry relative="1" as="geometry">
            <mxPoint x="395" y="430" as="sourcePoint" />
            <mxPoint x="195" y="430.5" as="targetPoint" />
            <mxPoint as="offset" />
          </mxGeometry>
        </mxCell>
        <mxCell id="7nPVy0LuQcUKSxDzFn3D-34" value="Airplane" style="shape=umlLifeline;perimeter=lifelinePerimeter;whiteSpace=wrap;html=1;container=1;dropTarget=0;collapsible=0;recursiveResize=0;outlineConnect=0;portConstraint=eastwest;newEdgeStyle={&quot;curved&quot;:0,&quot;rounded&quot;:0};" vertex="1" parent="1">
          <mxGeometry x="350" y="650" width="100" height="420" as="geometry" />
        </mxCell>
        <mxCell id="7nPVy0LuQcUKSxDzFn3D-35" value="" style="html=1;points=[[0,0,0,0,5],[0,1,0,0,-5],[1,0,0,0,5],[1,1,0,0,-5]];perimeter=orthogonalPerimeter;outlineConnect=0;targetShapes=umlLifeline;portConstraint=eastwest;newEdgeStyle={&quot;curved&quot;:0,&quot;rounded&quot;:0};" vertex="1" parent="7nPVy0LuQcUKSxDzFn3D-34">
          <mxGeometry x="44.5" y="60" width="10" height="80" as="geometry" />
        </mxCell>
        <mxCell id="7nPVy0LuQcUKSxDzFn3D-36" value="Seat Selection" style="text;align=center;fontStyle=1;verticalAlign=middle;spacingLeft=3;spacingRight=3;strokeColor=none;rotatable=0;points=[[0,0.5],[1,0.5]];portConstraint=eastwest;html=1;" vertex="1" parent="1">
          <mxGeometry x="50" y="610" width="80" height="26" as="geometry" />
        </mxCell>
        <mxCell id="7nPVy0LuQcUKSxDzFn3D-37" value="" style="shape=umlLifeline;perimeter=lifelinePerimeter;whiteSpace=wrap;html=1;container=1;dropTarget=0;collapsible=0;recursiveResize=0;outlineConnect=0;portConstraint=eastwest;newEdgeStyle={&quot;curved&quot;:0,&quot;rounded&quot;:0};participant=umlActor;" vertex="1" parent="1">
          <mxGeometry x="180" y="650" width="20" height="420" as="geometry" />
        </mxCell>
        <mxCell id="7nPVy0LuQcUKSxDzFn3D-38" value="" style="html=1;points=[[0,0,0,0,5],[0,1,0,0,-5],[1,0,0,0,5],[1,1,0,0,-5]];perimeter=orthogonalPerimeter;outlineConnect=0;targetShapes=umlLifeline;portConstraint=eastwest;newEdgeStyle={&quot;curved&quot;:0,&quot;rounded&quot;:0};" vertex="1" parent="7nPVy0LuQcUKSxDzFn3D-37">
          <mxGeometry x="5" y="60" width="10" height="80" as="geometry" />
        </mxCell>
        <mxCell id="7nPVy0LuQcUKSxDzFn3D-39" value="" style="html=1;points=[[0,0,0,0,5],[0,1,0,0,-5],[1,0,0,0,5],[1,1,0,0,-5]];perimeter=orthogonalPerimeter;outlineConnect=0;targetShapes=umlLifeline;portConstraint=eastwest;newEdgeStyle={&quot;curved&quot;:0,&quot;rounded&quot;:0};" vertex="1" parent="7nPVy0LuQcUKSxDzFn3D-37">
          <mxGeometry x="5" y="220" width="10" height="120" as="geometry" />
        </mxCell>
        <mxCell id="7nPVy0LuQcUKSxDzFn3D-40" value="Database" style="shape=umlLifeline;perimeter=lifelinePerimeter;whiteSpace=wrap;html=1;container=1;dropTarget=0;collapsible=0;recursiveResize=0;outlineConnect=0;portConstraint=eastwest;newEdgeStyle={&quot;curved&quot;:0,&quot;rounded&quot;:0};" vertex="1" parent="1">
          <mxGeometry x="560" y="650" width="100" height="420" as="geometry" />
        </mxCell>
        <mxCell id="7nPVy0LuQcUKSxDzFn3D-41" value="" style="html=1;points=[[0,0,0,0,5],[0,1,0,0,-5],[1,0,0,0,5],[1,1,0,0,-5]];perimeter=orthogonalPerimeter;outlineConnect=0;targetShapes=umlLifeline;portConstraint=eastwest;newEdgeStyle={&quot;curved&quot;:0,&quot;rounded&quot;:0};" vertex="1" parent="7nPVy0LuQcUKSxDzFn3D-40">
          <mxGeometry x="45" y="120" width="10" height="220" as="geometry" />
        </mxCell>
        <mxCell id="7nPVy0LuQcUKSxDzFn3D-56" value="" style="html=1;points=[[0,0,0,0,5],[0,1,0,0,-5],[1,0,0,0,5],[1,1,0,0,-5]];perimeter=orthogonalPerimeter;outlineConnect=0;targetShapes=umlLifeline;portConstraint=eastwest;newEdgeStyle={&quot;curved&quot;:0,&quot;rounded&quot;:0};" vertex="1" parent="1">
          <mxGeometry x="395" y="870" width="10" height="120" as="geometry" />
        </mxCell>
        <mxCell id="7nPVy0LuQcUKSxDzFn3D-61" value="user" style="text;html=1;align=center;verticalAlign=middle;resizable=0;points=[];autosize=1;strokeColor=none;fillColor=none;" vertex="1" parent="1">
          <mxGeometry x="190" y="130" width="50" height="30" as="geometry" />
        </mxCell>
        <mxCell id="7nPVy0LuQcUKSxDzFn3D-62" value="user" style="text;html=1;align=center;verticalAlign=middle;resizable=0;points=[];autosize=1;strokeColor=none;fillColor=none;" vertex="1" parent="1">
          <mxGeometry x="195" y="658" width="50" height="30" as="geometry" />
        </mxCell>
        <mxCell id="7nPVy0LuQcUKSxDzFn3D-63" value="Payment Page" style="shape=umlLifeline;perimeter=lifelinePerimeter;whiteSpace=wrap;html=1;container=1;dropTarget=0;collapsible=0;recursiveResize=0;outlineConnect=0;portConstraint=eastwest;newEdgeStyle={&quot;curved&quot;:0,&quot;rounded&quot;:0};" vertex="1" parent="1">
          <mxGeometry x="350" y="1180" width="100" height="420" as="geometry" />
        </mxCell>
        <mxCell id="7nPVy0LuQcUKSxDzFn3D-64" value="" style="html=1;points=[[0,0,0,0,5],[0,1,0,0,-5],[1,0,0,0,5],[1,1,0,0,-5]];perimeter=orthogonalPerimeter;outlineConnect=0;targetShapes=umlLifeline;portConstraint=eastwest;newEdgeStyle={&quot;curved&quot;:0,&quot;rounded&quot;:0};" vertex="1" parent="7nPVy0LuQcUKSxDzFn3D-63">
          <mxGeometry x="44.5" y="60" width="10" height="80" as="geometry" />
        </mxCell>
        <mxCell id="7nPVy0LuQcUKSxDzFn3D-65" value="Payment" style="text;align=center;fontStyle=1;verticalAlign=middle;spacingLeft=3;spacingRight=3;strokeColor=none;rotatable=0;points=[[0,0.5],[1,0.5]];portConstraint=eastwest;html=1;" vertex="1" parent="1">
          <mxGeometry x="50" y="1140" width="80" height="26" as="geometry" />
        </mxCell>
        <mxCell id="7nPVy0LuQcUKSxDzFn3D-66" value="" style="shape=umlLifeline;perimeter=lifelinePerimeter;whiteSpace=wrap;html=1;container=1;dropTarget=0;collapsible=0;recursiveResize=0;outlineConnect=0;portConstraint=eastwest;newEdgeStyle={&quot;curved&quot;:0,&quot;rounded&quot;:0};participant=umlActor;" vertex="1" parent="1">
          <mxGeometry x="180" y="1180" width="20" height="420" as="geometry" />
        </mxCell>
        <mxCell id="7nPVy0LuQcUKSxDzFn3D-67" value="" style="html=1;points=[[0,0,0,0,5],[0,1,0,0,-5],[1,0,0,0,5],[1,1,0,0,-5]];perimeter=orthogonalPerimeter;outlineConnect=0;targetShapes=umlLifeline;portConstraint=eastwest;newEdgeStyle={&quot;curved&quot;:0,&quot;rounded&quot;:0};" vertex="1" parent="7nPVy0LuQcUKSxDzFn3D-66">
          <mxGeometry x="5" y="60" width="10" height="80" as="geometry" />
        </mxCell>
        <mxCell id="7nPVy0LuQcUKSxDzFn3D-68" value="" style="html=1;points=[[0,0,0,0,5],[0,1,0,0,-5],[1,0,0,0,5],[1,1,0,0,-5]];perimeter=orthogonalPerimeter;outlineConnect=0;targetShapes=umlLifeline;portConstraint=eastwest;newEdgeStyle={&quot;curved&quot;:0,&quot;rounded&quot;:0};" vertex="1" parent="7nPVy0LuQcUKSxDzFn3D-66">
          <mxGeometry x="5" y="220" width="10" height="120" as="geometry" />
        </mxCell>
        <mxCell id="7nPVy0LuQcUKSxDzFn3D-69" value="Payment Processor" style="shape=umlLifeline;perimeter=lifelinePerimeter;whiteSpace=wrap;html=1;container=1;dropTarget=0;collapsible=0;recursiveResize=0;outlineConnect=0;portConstraint=eastwest;newEdgeStyle={&quot;curved&quot;:0,&quot;rounded&quot;:0};" vertex="1" parent="1">
          <mxGeometry x="560" y="1180" width="100" height="420" as="geometry" />
        </mxCell>
        <mxCell id="7nPVy0LuQcUKSxDzFn3D-70" value="" style="html=1;points=[[0,0,0,0,5],[0,1,0,0,-5],[1,0,0,0,5],[1,1,0,0,-5]];perimeter=orthogonalPerimeter;outlineConnect=0;targetShapes=umlLifeline;portConstraint=eastwest;newEdgeStyle={&quot;curved&quot;:0,&quot;rounded&quot;:0};" vertex="1" parent="7nPVy0LuQcUKSxDzFn3D-69">
          <mxGeometry x="45" y="120" width="10" height="220" as="geometry" />
        </mxCell>
        <mxCell id="7nPVy0LuQcUKSxDzFn3D-71" value="" style="html=1;points=[[0,0,0,0,5],[0,1,0,0,-5],[1,0,0,0,5],[1,1,0,0,-5]];perimeter=orthogonalPerimeter;outlineConnect=0;targetShapes=umlLifeline;portConstraint=eastwest;newEdgeStyle={&quot;curved&quot;:0,&quot;rounded&quot;:0};" vertex="1" parent="1">
          <mxGeometry x="395" y="1400" width="10" height="120" as="geometry" />
        </mxCell>
        <mxCell id="7nPVy0LuQcUKSxDzFn3D-72" value="user" style="text;html=1;align=center;verticalAlign=middle;resizable=0;points=[];autosize=1;strokeColor=none;fillColor=none;" vertex="1" parent="1">
          <mxGeometry x="195" y="1188" width="50" height="30" as="geometry" />
        </mxCell>
        <mxCell id="7nPVy0LuQcUKSxDzFn3D-73" value="Payment Page" style="shape=umlLifeline;perimeter=lifelinePerimeter;whiteSpace=wrap;html=1;container=1;dropTarget=0;collapsible=0;recursiveResize=0;outlineConnect=0;portConstraint=eastwest;newEdgeStyle={&quot;curved&quot;:0,&quot;rounded&quot;:0};" vertex="1" parent="1">
          <mxGeometry x="350" y="1750" width="100" height="420" as="geometry" />
        </mxCell>
        <mxCell id="7nPVy0LuQcUKSxDzFn3D-74" value="" style="html=1;points=[[0,0,0,0,5],[0,1,0,0,-5],[1,0,0,0,5],[1,1,0,0,-5]];perimeter=orthogonalPerimeter;outlineConnect=0;targetShapes=umlLifeline;portConstraint=eastwest;newEdgeStyle={&quot;curved&quot;:0,&quot;rounded&quot;:0};" vertex="1" parent="7nPVy0LuQcUKSxDzFn3D-73">
          <mxGeometry x="44.5" y="60" width="10" height="80" as="geometry" />
        </mxCell>
        <mxCell id="7nPVy0LuQcUKSxDzFn3D-75" value="Search Flight" style="text;align=center;fontStyle=1;verticalAlign=middle;spacingLeft=3;spacingRight=3;strokeColor=none;rotatable=0;points=[[0,0.5],[1,0.5]];portConstraint=eastwest;html=1;" vertex="1" parent="1">
          <mxGeometry x="50" y="1710" width="80" height="26" as="geometry" />
        </mxCell>
        <mxCell id="7nPVy0LuQcUKSxDzFn3D-76" value="" style="shape=umlLifeline;perimeter=lifelinePerimeter;whiteSpace=wrap;html=1;container=1;dropTarget=0;collapsible=0;recursiveResize=0;outlineConnect=0;portConstraint=eastwest;newEdgeStyle={&quot;curved&quot;:0,&quot;rounded&quot;:0};participant=umlActor;" vertex="1" parent="1">
          <mxGeometry x="180" y="1750" width="20" height="420" as="geometry" />
        </mxCell>
        <mxCell id="7nPVy0LuQcUKSxDzFn3D-77" value="" style="html=1;points=[[0,0,0,0,5],[0,1,0,0,-5],[1,0,0,0,5],[1,1,0,0,-5]];perimeter=orthogonalPerimeter;outlineConnect=0;targetShapes=umlLifeline;portConstraint=eastwest;newEdgeStyle={&quot;curved&quot;:0,&quot;rounded&quot;:0};" vertex="1" parent="7nPVy0LuQcUKSxDzFn3D-76">
          <mxGeometry x="5" y="60" width="10" height="80" as="geometry" />
        </mxCell>
        <mxCell id="7nPVy0LuQcUKSxDzFn3D-78" value="" style="html=1;points=[[0,0,0,0,5],[0,1,0,0,-5],[1,0,0,0,5],[1,1,0,0,-5]];perimeter=orthogonalPerimeter;outlineConnect=0;targetShapes=umlLifeline;portConstraint=eastwest;newEdgeStyle={&quot;curved&quot;:0,&quot;rounded&quot;:0};" vertex="1" parent="7nPVy0LuQcUKSxDzFn3D-76">
          <mxGeometry x="5" y="220" width="10" height="120" as="geometry" />
        </mxCell>
        <mxCell id="7nPVy0LuQcUKSxDzFn3D-79" value="Payment Processor" style="shape=umlLifeline;perimeter=lifelinePerimeter;whiteSpace=wrap;html=1;container=1;dropTarget=0;collapsible=0;recursiveResize=0;outlineConnect=0;portConstraint=eastwest;newEdgeStyle={&quot;curved&quot;:0,&quot;rounded&quot;:0};" vertex="1" parent="1">
          <mxGeometry x="560" y="1750" width="100" height="420" as="geometry" />
        </mxCell>
        <mxCell id="7nPVy0LuQcUKSxDzFn3D-80" value="" style="html=1;points=[[0,0,0,0,5],[0,1,0,0,-5],[1,0,0,0,5],[1,1,0,0,-5]];perimeter=orthogonalPerimeter;outlineConnect=0;targetShapes=umlLifeline;portConstraint=eastwest;newEdgeStyle={&quot;curved&quot;:0,&quot;rounded&quot;:0};" vertex="1" parent="7nPVy0LuQcUKSxDzFn3D-79">
          <mxGeometry x="45" y="120" width="10" height="220" as="geometry" />
        </mxCell>
        <mxCell id="7nPVy0LuQcUKSxDzFn3D-81" value="" style="html=1;points=[[0,0,0,0,5],[0,1,0,0,-5],[1,0,0,0,5],[1,1,0,0,-5]];perimeter=orthogonalPerimeter;outlineConnect=0;targetShapes=umlLifeline;portConstraint=eastwest;newEdgeStyle={&quot;curved&quot;:0,&quot;rounded&quot;:0};" vertex="1" parent="1">
          <mxGeometry x="395" y="1970" width="10" height="120" as="geometry" />
        </mxCell>
        <mxCell id="7nPVy0LuQcUKSxDzFn3D-82" value="user" style="text;html=1;align=center;verticalAlign=middle;resizable=0;points=[];autosize=1;strokeColor=none;fillColor=none;" vertex="1" parent="1">
          <mxGeometry x="195" y="1758" width="50" height="30" as="geometry" />
        </mxCell>
      </root>
    </mxGraphModel>
  </diagram>
</mxfile>
